<?xml version="1.0" encoding="UTF-8" standalone="no"?>
<!DOCTYPE svg PUBLIC "-//W3C//DTD SVG 1.1//EN" "http://www.w3.org/Graphics/SVG/1.1/DTD/svg11.dtd">
<svg width="100%" height="100%" viewBox="0 0 286 347" version="1.1" xmlns="http://www.w3.org/2000/svg" xmlns:xlink="http://www.w3.org/1999/xlink" xml:space="preserve" xmlns:serif="http://www.serif.com/" style="fill-rule:evenodd;clip-rule:evenodd;stroke-linejoin:round;stroke-miterlimit:2;">
    <g transform="matrix(1,0,0,1,-362.272824,-131.71)">
        <g>
            <g>
                <g>
                    <path d="M647.42,131.71C646.18,174.04 648.97,216.93 647.49,259.35C645.68,311.02 639.79,349.7 609.68,392.92C583.21,430.93 546.2,457.8 504.91,478.07C453.86,452.41 403.11,417.37 380.69,363.08C355.35,301.74 364.15,195.66 362.4,131.71L647.42,131.71ZM373.11,142.43C372.37,153.46 365.69,311.87 392,362.49C416.41,409.44 458.94,442.69 504.91,465.86C564.17,438.39 614.02,390.14 629.65,325.03C638.93,286.36 641.49,189.62 636.82,149.82C636.45,146.7 635.43,142.43 635.43,142.43L373.11,142.43Z" style="fill:rgb(16,40,63);fill-rule:nonzero;"/>
                </g>
            </g>
            <path d="M623.84,288.15L385.96,288.15C391.09,364.17 438.29,420.25 504.88,452.41C571.21,420.07 616.01,362.75 623.84,288.15ZM506.27,308.53C507.43,308.27 508.19,309.2 508.62,310.11C509.34,311.39 509.55,312.48 508.92,313.49C507.92,314.11 506.86,314.73 505.97,315.24C505.59,314.64 505.2,314.04 504.86,313.4C504.3,312.36 503.79,311.29 503.36,310.24C504.33,309.68 505.31,309.1 506.27,308.53ZM497.28,297.96L499.89,302.32C498.2,306.47 500.68,311.37 502.46,314.69C504.51,318.41 507.37,323.03 512,322.99L514.31,326.93L499.51,335.32L496.9,330.91C498.24,326.62 495.95,321.71 494.16,318.29C491.87,314.56 489.34,309.85 484.75,310.2L482.48,306.35L497.28,297.96ZM449.62,345.29C448.41,343.07 450.33,341.86 451.85,340.75L490.69,317.77L490.7,317.77C491.05,318.34 491.4,318.96 491.73,319.57C492.29,320.64 492.79,321.73 493.23,322.82L454.55,345.67C452.26,347.07 450.92,346.88 449.63,345.29L449.62,345.29ZM479.23,368.7L465.54,368.7L465.54,357.74L479.23,357.74L479.23,368.7ZM528.51,409.78L481.96,409.78L481.96,398.82C494.22,398.87 521.99,398.82 528.51,398.82L528.51,409.78ZM493.26,396.08C498.43,391.26 499.5,384.9 499.72,379.65L510.76,379.65C510.94,385.35 512.35,390.47 517.22,396.12C509.15,396.14 502.27,396.08 493.26,396.08ZM528.51,376.91L481.96,376.91L481.96,357.74C494.22,357.79 521.99,357.74 528.51,357.74C528.49,364.16 528.51,370.52 528.51,376.91ZM540.91,366.17C538.63,367.78 535.29,368.51 531.24,368.65L531.24,357.74L544.68,357.74C544.39,361.91 543.16,364.58 540.91,366.17Z" style="fill:rgb(16,40,63);fill-rule:nonzero;"/>
        </g>
        <g>
            <path d="M473.94,197.62C474.02,197.67 474.09,197.72 474.16,197.79C474.09,197.72 474.01,197.67 473.94,197.62Z" style="fill:rgb(16,40,63);fill-rule:nonzero;"/>
            <path d="M474.6,198.68C474.58,198.53 474.53,198.38 474.45,198.22C474.53,198.38 474.57,198.54 474.6,198.68Z" style="fill:rgb(16,40,63);fill-rule:nonzero;"/>
            <path d="M472.96,200.17C470.35,199.79 467.75,199.54 465.19,199.55C467.76,199.53 470.35,199.79 472.96,200.17Z" style="fill:rgb(16,40,63);fill-rule:nonzero;"/>
            <path d="M451.49,203.13C451.89,202.95 452.33,202.86 452.71,202.65C452.33,202.86 451.89,202.94 451.49,203.13Z" style="fill:rgb(16,40,63);fill-rule:nonzero;"/>
            <path d="M441.15,195.37C436.13,191.22 430.28,189.17 423.89,188.6C418.88,188.15 413.88,188.29 408.93,189.27C408.26,189.4 408.09,189.52 408.09,190.18C408.1,205.15 408.1,220.12 408.09,235.11C408.09,235.9 408.21,236.01 409.05,235.79C414.66,234.36 420.32,233.58 426.16,234.43C431.83,235.25 437,237.16 441.65,240.48C441.69,240.44 441.73,240.41 441.73,240.39C441.73,225.75 441.73,211.1 441.75,196.46C441.75,195.95 441.53,195.69 441.15,195.37ZM437.55,211.03C437.05,211.78 436.23,211.83 435.39,211.43C432.94,210.25 430.41,209.33 427.72,208.88C423.7,208.21 419.67,207.79 415.61,208.44C414.97,208.55 414.31,208.6 413.68,208.63C412.73,208.67 412.16,207.95 412.03,206.99C412.02,206.88 412.02,206.76 412.03,206.65C412.11,205.86 412.79,205.16 413.65,205.02C415.61,204.68 417.61,204.64 419.72,204.5C424.47,204.78 429.28,205.37 433.9,207.04C435.08,207.47 436.18,208.1 437.04,209.05C437.44,209.49 437.78,209.99 437.73,210.51C437.72,210.68 437.66,210.86 437.55,211.03ZM437.22,220.25L437.21,220.25C436.68,220.83 436.04,220.87 435.32,220.57C432.41,219.33 429.46,218.21 426.33,217.68C422.77,217.08 419.21,217.04 415.65,217.68C415.13,217.77 414.6,217.86 414.08,217.9C413.23,217.95 412.58,217.66 412.25,217.13C412.13,216.94 412.04,216.71 412.02,216.45C412.01,216.32 412.01,216.19 412.02,216.06C412.03,215.93 412.06,215.81 412.09,215.69C412.3,214.98 412.91,214.46 413.76,214.35C415.3,214.13 416.84,213.87 418.37,213.81C418.88,213.79 419.39,213.79 419.9,213.83C420.59,213.8 421.27,213.8 421.94,213.83C426.69,213.97 431.18,215.3 435.6,216.91C436.19,217.13 436.75,217.46 437.12,218.01C437.2,218.12 437.28,218.22 437.33,218.35C437.63,219.01 437.78,219.67 437.21,220.25L437.22,220.25ZM411.97,198.14C412.01,197.4 412.43,196.61 413.09,196.36C413.72,196.11 414.43,196.02 415.1,195.97C417.01,195.82 418.92,195.75 420.65,195.66C425.78,195.79 430.57,196.65 435.02,198.9C435.6,199.2 436.17,199.51 436.7,199.88C436.77,199.93 436.83,199.98 436.9,200.04C437.56,200.6 437.6,201.39 437.18,202.13C436.74,202.93 435.98,202.65 435.35,202.41C433.42,201.66 431.56,200.85 429.56,200.31C424.67,198.97 419.77,198.9 414.83,199.84C414.17,199.96 413.55,199.92 413.06,199.75C413.01,199.73 412.97,199.71 412.93,199.69C412.86,199.66 412.79,199.63 412.72,199.6C412.64,199.56 412.57,199.5 412.51,199.45C412.49,199.43 412.46,199.42 412.44,199.4C412.27,199.25 412.14,199.07 412.07,198.86L412.07,198.83C412,198.62 411.97,198.39 411.98,198.15L411.97,198.15L411.97,198.14ZM437.58,228.95C437.05,229.48 436.49,229.74 435.71,229.43C433.12,228.42 430.48,227.62 427.76,227.03C423.45,226.09 419.15,225.98 414.85,226.98C414.53,227.05 414.21,227.08 413.89,227.13C413.22,227.22 412.66,227.13 412.29,226.78C412.07,226.56 411.91,226.24 411.85,225.78C411.69,224.71 412.43,223.62 413.49,223.42C415.74,223.01 418.01,222.89 420.28,222.82C425.62,222.68 430.71,223.81 435.59,225.92C436.33,226.24 437.13,226.56 437.46,227.38C437.59,227.69 437.81,228.01 437.82,228.34C437.83,228.54 437.77,228.74 437.57,228.95L437.58,228.95Z" style="fill:rgb(16,40,63);fill-rule:nonzero;"/>
            <path d="M429.55,200.3C431.55,200.84 433.41,201.66 435.34,202.4C433.41,201.65 431.55,200.84 429.55,200.3Z" style="fill:rgb(16,40,63);fill-rule:nonzero;"/>
            <path d="M412.21,199.14C412.15,199.05 412.1,198.96 412.07,198.85C411.76,197.97 412.22,196.7 413.1,196.37C413.72,196.12 414.44,196.03 415.11,195.98C417.02,195.84 418.94,195.77 420.66,195.67C418.94,195.77 417.02,195.84 415.11,195.98C414.44,196.03 413.73,196.12 413.1,196.37C412.44,196.62 412.02,197.4 411.98,198.14C411.97,198.38 412,198.62 412.07,198.84C412.11,198.95 412.16,199.04 412.22,199.14L412.21,199.14Z" style="fill:rgb(16,40,63);fill-rule:nonzero;"/>
            <path d="M422.2,199.22C424.66,199.29 427.1,199.64 429.55,200.3C424.94,199.04 420.32,198.91 415.66,199.69C417.85,199.33 420.03,199.16 422.2,199.22Z" style="fill:rgb(16,40,63);fill-rule:nonzero;"/>
            <path d="M451.49,203.13C450.8,203.44 450.25,203.33 449.83,202.92C450.25,203.34 450.81,203.45 451.49,203.13Z" style="fill:rgb(16,40,63);fill-rule:nonzero;"/>
            <path d="M478.52,235.91L478.53,235.91C478.55,235.78 478.59,235.66 478.59,235.56C478.6,220.59 478.59,205.63 478.6,190.66C478.6,190.19 478.56,189.94 477.96,189.75C472.42,188 466.77,188.04 461.17,188.96C455.79,189.84 450.84,192.08 446.16,194.88C445.39,195.34 445.14,195.81 445.14,196.69C445.18,210.88 445.16,225.07 445.16,239.26L445.16,240.36C454.85,234.3 465.84,232.3 478.52,235.91ZM465.55,196.22C462.28,196.26 459.07,196.7 455.98,197.74C459.08,196.7 462.28,196.25 465.55,196.22ZM450.07,200.22C449.23,200.73 448.98,201.53 449.45,202.41C449.51,202.51 449.57,202.6 449.63,202.69C449.57,202.61 449.51,202.52 449.46,202.42C448.98,201.54 449.23,200.74 450.08,200.23C451.92,199.11 453.96,198.43 455.99,197.75C459.08,196.71 462.29,196.27 465.56,196.23C468.04,196.3 470.5,196.59 472.91,197.19C473.22,197.26 473.53,197.36 473.8,197.51C473.53,197.35 473.22,197.25 472.9,197.18C473.37,197.29 473.83,197.45 474.16,197.8C474.27,197.92 474.38,198.06 474.46,198.23C474.77,198.88 474.61,199.39 474.24,199.93C473.88,200.47 473.49,200.25 472.97,200.18C466.01,199.18 459.14,199.01 452.73,202.66C452.35,202.87 451.9,202.95 451.5,203.14C450.69,203.52 450.06,203.29 449.63,202.69C449.57,202.6 449.51,202.51 449.45,202.41C448.97,201.53 449.22,200.73 450.07,200.22ZM450.08,210.43C451.56,209.61 453.15,209 454.74,208.43C457.92,207.31 461.22,206.92 464.61,206.79C467.44,206.91 470.31,207.22 473.15,207.74C474.09,207.92 474.63,208.59 474.66,209.42C474.66,209.54 474.66,209.66 474.64,209.79C474.48,210.86 473.74,211.04 472.84,210.92C471.04,210.7 469.24,210.39 467.43,210.2C462.35,209.66 457.5,210.5 452.9,212.76C452.39,213 451.85,213.17 451.33,213.38L451.32,213.38C450.4,213.78 449.43,213.8 449.04,212.79C448.95,212.56 448.91,212.32 448.92,212.1C448.94,211.43 449.38,210.82 450.08,210.43ZM458.72,221.36C456.28,221.87 453.92,222.67 451.66,223.82C451.28,224.01 450.89,224.18 450.48,224.19C450.23,224.19 449.97,224.14 449.7,224.01C449.04,223.68 448.9,223.13 448.86,222.52C448.83,222.01 449.03,221.61 449.38,221.32C449.5,221.22 449.63,221.14 449.78,221.07C452.99,219.52 456.35,218.37 459.88,217.77C460.28,217.7 460.67,217.65 461.08,217.62C461.89,217.56 462.74,217.55 463.71,217.55C464.19,217.55 464.71,217.55 465.26,217.53C466.81,217.41 468.69,217.61 470.64,217.93C471.29,218.04 471.95,218.16 472.61,218.3C474.36,218.66 474.94,219.4 474.63,220.71C474.5,221.25 474.22,221.6 473.77,221.74C473.66,221.78 473.53,221.8 473.39,221.81C473.25,221.82 473.11,221.81 472.95,221.81C472.79,221.81 472.62,221.78 472.43,221.74C472.25,221.7 472.05,221.66 471.84,221.6C471.13,221.4 470.42,221.24 469.7,221.1C468.27,220.83 466.82,220.68 465.37,220.66C464.64,220.66 463.91,220.66 463.18,220.73C461.67,220.85 460.18,221.05 458.72,221.36Z" style="fill:rgb(16,40,63);fill-rule:nonzero;"/>
            <path d="M483.74,197.02C483.75,196.26 483.48,196.16 482.83,196.18C481.83,196.2 482.28,196.95 482.28,197.34C482.26,210.35 482.26,223.36 482.26,236.37C482.26,236.74 482.27,237.1 482.26,237.47C482.17,239.21 480.87,240.14 479.17,239.69C475.69,238.74 472.15,237.95 468.54,237.72C464.89,237.47 461.26,237.85 457.67,238.65C454.78,239.3 452.09,240.4 449.24,242.1C460.59,242.1 471.56,242.08 482.54,242.12C483.63,242.12 483.76,241.79 483.75,240.83C483.73,228.92 483.74,217.02 483.74,205.11C483.74,202.42 483.7,199.72 483.75,197.02L483.74,197.02Z" style="fill:rgb(16,40,63);fill-rule:nonzero;"/>
            <path d="M431.76,239.25C429.73,238.58 427.6,238.23 425.47,237.97C422.18,237.57 418.91,237.53 415.63,238.11C412.84,238.59 410.12,239.42 407.29,239.61C405.32,239.74 404.65,239.06 404.65,237.08L404.65,200.52C404.65,199.29 404.63,198.06 404.67,196.84C404.68,196.29 404.48,196.2 403.97,196.14C402.97,196.01 403.09,196.61 403.09,197.24C403.09,211.8 403.1,226.35 403.07,240.91C403.07,241.89 403.34,242.09 404.27,242.08C415.07,242.06 425.87,242.08 436.67,242.08L437.57,242.08C435.69,240.88 433.8,239.94 431.76,239.26L431.76,239.25Z" style="fill:rgb(16,40,63);fill-rule:nonzero;"/>
            <path d="M385.97,155.29L385.97,275.3L501.69,275.3L501.69,155.29L385.97,155.29ZM487.25,213.2L487.25,219.24L487.24,219.24L487.24,242.8C487.24,243.18 487.25,243.55 487.23,243.91C487.16,245.34 486.71,245.78 485.28,245.78L448.2,245.78C446.97,245.78 445.91,245.97 445.08,247.16C444.17,248.48 442.12,248.41 441.23,247.07C440.51,245.98 439.6,245.77 438.43,245.77C426.22,245.79 414.03,245.77 401.84,245.77C400.08,245.77 399.5,245.2 399.5,243.45L399.5,194.85C399.5,193.26 400.09,192.65 401.68,192.58C402.65,192.53 404.08,192.87 404.47,192.37C404.97,191.72 404.66,190.43 404.66,189.42C404.67,186.81 404.68,186.85 407.95,186.06C411.97,185.09 416.04,184.63 420.15,184.75C428.53,184.99 436.21,187.5 443.11,192.3C443.52,192.6 443.72,192.75 444.18,192.38C448.48,188.92 453.55,187.18 458.81,185.89C462.17,185.06 465.6,184.69 469.04,184.71C473.03,184.73 476.92,185.64 480.75,186.69C481.67,186.95 482.3,187.71 482.27,188.8C482.26,189.83 482.29,190.85 482.26,191.87C482.25,192.39 482.38,192.59 482.93,192.54C483.66,192.48 484.41,192.49 485.14,192.52C486.5,192.57 487.19,193.18 487.21,194.55C487.26,200.77 487.26,206.99 487.27,213.2L487.25,213.2Z" style="fill:rgb(16,40,63);fill-rule:nonzero;"/>
            <path d="M413.77,214.37C415.82,214.07 417.88,213.71 419.91,213.85C425.43,213.61 430.56,215.08 435.61,216.92C435.96,217.05 436.31,217.21 436.61,217.44C436.31,217.21 435.96,217.04 435.6,216.91C431.17,215.3 426.69,213.97 421.95,213.83C421.28,213.81 420.6,213.81 419.91,213.83C419.41,213.8 418.9,213.79 418.39,213.81C416.86,213.87 415.32,214.12 413.78,214.35C412.77,214.48 412.11,215.18 412.04,216.07C412.12,215.18 412.78,214.49 413.78,214.36L413.77,214.36L413.77,214.37Z" style="fill:rgb(16,40,63);fill-rule:nonzero;"/>
        </g>
        <g>
            <path d="M508.12,155.29L623.84,155.29L623.84,275.3L508.12,275.3L508.12,155.29ZM603.34,215.61L602.06,215.45C601.58,196.32 586.06,180.88 566.93,180.32L566.77,179.04C566.69,178.64 566.37,178.4 565.97,178.4C565.57,178.4 565.25,178.72 565.17,179.04L565.01,180.32C545.88,180.8 530.44,196.32 529.88,215.45L528.6,215.61C528.2,215.69 527.96,216.01 527.96,216.41C527.96,216.81 528.28,217.13 528.6,217.21L529.88,217.37C530.36,236.5 545.88,251.94 565.01,252.5L565.17,253.78C565.25,254.18 565.57,254.42 565.97,254.42C566.13,254.42 566.37,254.34 566.53,254.18C566.69,254.02 566.69,253.94 566.77,253.78L566.93,252.5C586.06,252.02 601.5,236.5 602.06,217.37L603.34,217.21C603.74,217.13 603.98,216.81 603.98,216.41C603.98,216.01 603.66,215.69 603.34,215.61ZM550.21,232.18C549.89,231.86 549.41,231.86 549.09,232.18L545.65,235.62C541.41,231.14 538.61,225.22 538.05,218.66L560.22,222.18L563.74,244.35C557.18,243.79 551.26,241.07 546.78,236.83L550.22,233.39C550.54,232.99 550.54,232.51 550.22,232.19L550.21,232.18ZM550.21,199.53L546.77,196.09C551.25,191.85 557.17,189.05 563.73,188.57L560.21,210.66L538.04,214.18C538.6,207.62 541.32,201.7 545.56,197.22L549,200.66C549.32,200.98 549.8,200.98 550.12,200.66C550.52,200.34 550.52,199.86 550.2,199.54L550.21,199.53ZM564.77,181.84L563.97,186.88C549.33,187.84 537.48,199.68 536.52,214.33L531.48,215.13C532.12,197.12 546.68,182.56 564.77,181.84ZM561.73,221.77L565.97,217.53L570.21,221.77L565.97,248.66L561.73,221.77ZM571.34,220.65L567.1,216.41L571.34,212.17L598.23,216.41L571.34,220.65ZM531.4,217.61L536.44,218.41C537.4,233.05 549.24,244.9 563.89,245.86L564.69,250.9C546.68,250.26 532.12,235.7 531.4,217.61ZM565.97,184.08L570.21,210.97L565.97,215.21L561.73,210.97L565.97,184.08ZM581.74,233.3L585.18,236.74C580.7,240.98 574.78,243.78 568.22,244.34L571.74,222.17L593.91,218.65C593.35,225.21 590.63,231.13 586.31,235.61L582.87,232.17C582.55,231.85 582.07,231.85 581.75,232.17C581.43,232.49 581.43,232.97 581.75,233.29L581.74,233.3ZM567.17,250.98L567.97,245.94C575.33,245.46 581.89,242.26 586.86,237.38C591.83,232.5 594.94,225.86 595.42,218.49L600.46,217.69C599.82,235.7 585.26,250.26 567.17,250.98ZM581.74,200.65C582.06,200.97 582.54,200.97 582.86,200.65L586.3,197.21C590.7,201.93 593.34,207.77 593.82,214.17L571.65,210.65L568.13,188.48C574.53,188.96 580.45,191.68 585.09,196L581.65,199.44C581.41,199.84 581.41,200.32 581.73,200.64L581.74,200.65ZM600.54,215.21L595.5,214.41C595.02,207.29 592.06,200.65 586.94,195.52C581.82,190.4 575.18,187.44 568.05,186.96L567.25,181.92C585.26,182.56 599.82,197.12 600.54,215.21ZM560.61,212.17L564.85,216.41L560.61,220.65L533.72,216.41L560.61,212.17Z" style="fill:rgb(16,40,63);"/>
        </g>
    </g>
</svg>
